<svg width="25" height="24" viewBox="0 0 25 24" fill="none" xmlns="http://www.w3.org/2000/svg">
<path d="M17.9468 12.6358C17.9226 10.1091 20.146 8.87984 20.2476 8.82261C18.9885 7.09555 17.0368 6.85958 16.351 6.84076C14.7118 6.67848 13.1218 7.76348 12.2868 7.76348C11.4351 7.76348 10.1493 6.85644 8.76348 6.8831C6.98014 6.90897 5.31181 7.88029 4.39681 9.38863C2.50847 12.4641 3.91681 16.9836 5.72597 19.4695C6.63098 20.687 7.68848 22.0464 9.07264 21.9986C10.4268 21.9461 10.9326 21.1864 12.5668 21.1864C14.186 21.1864 14.661 21.9986 16.0726 21.968C17.526 21.9461 18.441 20.745 19.3143 19.5166C20.3601 18.1211 20.7801 16.7469 20.7968 16.6763C20.7626 16.6653 17.9743 15.6642 17.9468 12.6358Z" fill="#171740"/>
<path d="M15.2803 5.20561C16.0086 4.34874 16.5069 3.18299 16.3686 2C15.3144 2.0439 13.9961 2.68596 13.2369 3.52402C12.5653 4.2625 11.9653 5.47294 12.1203 6.61124C13.3044 6.69434 14.5203 6.04915 15.2803 5.20561Z" fill="#171740"/>
</svg>
