<svg width="126" height="40" viewBox="0 0 126 40" fill="none" xmlns="http://www.w3.org/2000/svg">
<g filter="url(#filter0_d_17309_724)">
<g clip-path="url(#clip0_17309_724)">
<path d="M30.0088 10.6358C31.1727 11.4168 31.8663 12.2445 32.0894 13.119C32.4279 14.4457 33.5089 25.7131 32.05 26.7168C30.591 27.7204 26.6314 27.293 21.0533 28.077C15.4752 28.8609 11.2703 30.604 9.85447 29.6509C8.4386 28.6977 6.32329 18.1241 6.3511 16.5785C6.36964 15.5481 6.89053 14.5915 7.91379 13.7087C6.55253 13.3488 5.77351 12.4687 5.57671 11.0685C5.28709 9.00769 7.66617 3.6347 16.8946 2.14875C16.7345 2.67741 16.684 3.24731 16.7657 3.82874C17.006 5.53868 18.3184 6.83747 19.9398 7.15788C20.3237 9.23335 22.3013 10.6538 24.4389 10.3534C25.2008 10.2463 25.8829 9.93471 26.4361 9.48281C27.2967 10.3658 28.5607 10.8412 29.8862 10.655C29.9273 10.6492 29.9682 10.6428 30.0088 10.6358Z" fill="#5555FF"/>
</g>
<path d="M58.2424 15.1591L54.4924 15.5682C54.3863 15.1894 54.2007 14.8333 53.9356 14.5C53.678 14.1667 53.3295 13.8977 52.8901 13.6932C52.4507 13.4886 51.9129 13.3864 51.2765 13.3864C50.4204 13.3864 49.7007 13.572 49.1174 13.9432C48.5416 14.3144 48.2576 14.7955 48.2651 15.3864C48.2576 15.8939 48.4432 16.3068 48.8219 16.625C49.2083 16.9432 49.8447 17.2045 50.731 17.4091L53.7083 18.0455C55.3598 18.4015 56.5871 18.9659 57.3901 19.7386C58.2007 20.5114 58.6098 21.5227 58.6174 22.7727C58.6098 23.8712 58.2879 24.8409 57.6515 25.6818C57.0227 26.5152 56.1477 27.1667 55.0265 27.6364C53.9053 28.1061 52.6174 28.3409 51.1629 28.3409C49.0265 28.3409 47.3068 27.8939 46.0038 27C44.7007 26.0985 43.9242 24.8447 43.6742 23.2386L47.6856 22.8523C47.8674 23.6402 48.2538 24.2348 48.8447 24.6364C49.4356 25.0379 50.2045 25.2386 51.1515 25.2386C52.1288 25.2386 52.9129 25.0379 53.5038 24.6364C54.1023 24.2348 54.4015 23.7386 54.4015 23.1477C54.4015 22.6477 54.2083 22.2348 53.8219 21.9091C53.4432 21.5833 52.8523 21.3333 52.0492 21.1591L49.0719 20.5341C47.3977 20.1856 46.1591 19.5985 45.356 18.7727C44.553 17.9394 44.1553 16.8864 44.1629 15.6136C44.1553 14.5379 44.4469 13.6061 45.0379 12.8182C45.6363 12.0227 46.4659 11.4091 47.5265 10.9773C48.5947 10.5379 49.8257 10.3182 51.2197 10.3182C53.2651 10.3182 54.875 10.7538 56.0492 11.625C57.231 12.4962 57.9621 13.6742 58.2424 15.1591ZM70.2631 28.3409C68.5585 28.3409 67.0813 27.9659 65.8313 27.2159C64.5813 26.4659 63.6116 25.4167 62.9222 24.0682C62.2404 22.7197 61.8994 21.1439 61.8994 19.3409C61.8994 17.5379 62.2404 15.9583 62.9222 14.6023C63.6116 13.2462 64.5813 12.1932 65.8313 11.4432C67.0813 10.6932 68.5585 10.3182 70.2631 10.3182C71.9676 10.3182 73.4449 10.6932 74.6949 11.4432C75.9449 12.1932 76.9108 13.2462 77.5926 14.6023C78.282 15.9583 78.6267 17.5379 78.6267 19.3409C78.6267 21.1439 78.282 22.7197 77.5926 24.0682C76.9108 25.4167 75.9449 26.4659 74.6949 27.2159C73.4449 27.9659 71.9676 28.3409 70.2631 28.3409ZM70.2858 25.0455C71.2101 25.0455 71.9828 24.7917 72.604 24.2841C73.2252 23.7689 73.6873 23.0795 73.9904 22.2159C74.301 21.3523 74.4563 20.3902 74.4563 19.3295C74.4563 18.2614 74.301 17.2955 73.9904 16.4318C73.6873 15.5606 73.2252 14.8674 72.604 14.3523C71.9828 13.8371 71.2101 13.5795 70.2858 13.5795C69.3388 13.5795 68.551 13.8371 67.9222 14.3523C67.301 14.8674 66.8351 15.5606 66.5244 16.4318C66.2214 17.2955 66.0699 18.2614 66.0699 19.3295C66.0699 20.3902 66.2214 21.3523 66.5244 22.2159C66.8351 23.0795 67.301 23.7689 67.9222 24.2841C68.551 24.7917 69.3388 25.0455 70.2858 25.0455ZM89.2355 28.3068C87.8643 28.3068 86.637 27.9545 85.5537 27.25C84.4703 26.5455 83.6143 25.5227 82.9855 24.1818C82.3567 22.8409 82.0423 21.2121 82.0423 19.2955C82.0423 17.3561 82.3605 15.7197 82.9968 14.3864C83.6408 13.0455 84.5082 12.0341 85.5991 11.3523C86.69 10.6629 87.9059 10.3182 89.2468 10.3182C90.2696 10.3182 91.1105 10.4924 91.7696 10.8409C92.4287 11.1818 92.9514 11.5947 93.3377 12.0795C93.7241 12.5568 94.0234 13.0076 94.2355 13.4318H94.4059V4.72727H98.5309V28H94.4855V25.25H94.2355C94.0234 25.6742 93.7165 26.125 93.315 26.6023C92.9135 27.072 92.3832 27.4735 91.7241 27.8068C91.065 28.1402 90.2355 28.3068 89.2355 28.3068ZM90.3832 24.9318C91.2544 24.9318 91.9968 24.697 92.6105 24.2273C93.2241 23.75 93.69 23.0871 94.0082 22.2386C94.3264 21.3902 94.4855 20.4015 94.4855 19.2727C94.4855 18.1439 94.3264 17.1629 94.0082 16.3295C93.6976 15.4962 93.2355 14.8485 92.6218 14.3864C92.0158 13.9242 91.2696 13.6932 90.3832 13.6932C89.4665 13.6932 88.7014 13.9318 88.0877 14.4091C87.4741 14.8864 87.012 15.5455 86.7014 16.3864C86.3908 17.2273 86.2355 18.1894 86.2355 19.2727C86.2355 20.3636 86.3908 21.3371 86.7014 22.1932C87.0196 23.0417 87.4855 23.7121 88.0991 24.2045C88.7203 24.6894 89.4817 24.9318 90.3832 24.9318ZM111.168 28.3409C109.464 28.3409 107.986 27.9659 106.736 27.2159C105.486 26.4659 104.517 25.4167 103.827 24.0682C103.145 22.7197 102.804 21.1439 102.804 19.3409C102.804 17.5379 103.145 15.9583 103.827 14.6023C104.517 13.2462 105.486 12.1932 106.736 11.4432C107.986 10.6932 109.464 10.3182 111.168 10.3182C112.873 10.3182 114.35 10.6932 115.6 11.4432C116.85 12.1932 117.816 13.2462 118.498 14.6023C119.187 15.9583 119.532 17.5379 119.532 19.3409C119.532 21.1439 119.187 22.7197 118.498 24.0682C117.816 25.4167 116.85 26.4659 115.6 27.2159C114.35 27.9659 112.873 28.3409 111.168 28.3409ZM111.191 25.0455C112.115 25.0455 112.888 24.7917 113.509 24.2841C114.13 23.7689 114.592 23.0795 114.895 22.2159C115.206 21.3523 115.361 20.3902 115.361 19.3295C115.361 18.2614 115.206 17.2955 114.895 16.4318C114.592 15.5606 114.13 14.8674 113.509 14.3523C112.888 13.8371 112.115 13.5795 111.191 13.5795C110.244 13.5795 109.456 13.8371 108.827 14.3523C108.206 14.8674 107.74 15.5606 107.429 16.4318C107.126 17.2955 106.975 18.2614 106.975 19.3295C106.975 20.3902 107.126 21.3523 107.429 22.2159C107.74 23.0795 108.206 23.7689 108.827 24.2841C109.456 24.7917 110.244 25.0455 111.191 25.0455Z" fill="#171740"/>
</g>
<defs>
<filter id="filter0_d_17309_724" x="0" y="0" width="125.333" height="40" filterUnits="userSpaceOnUse" color-interpolation-filters="sRGB">
<feFlood flood-opacity="0" result="BackgroundImageFix"/>
<feColorMatrix in="SourceAlpha" type="matrix" values="0 0 0 0 0 0 0 0 0 0 0 0 0 0 0 0 0 0 127 0" result="hardAlpha"/>
<feOffset dy="4"/>
<feGaussianBlur stdDeviation="2"/>
<feComposite in2="hardAlpha" operator="out"/>
<feColorMatrix type="matrix" values="0 0 0 0 0 0 0 0 0 0 0 0 0 0 0 0 0 0 0.25 0"/>
<feBlend mode="normal" in2="BackgroundImageFix" result="effect1_dropShadow_17309_724"/>
<feBlend mode="normal" in="SourceGraphic" in2="effect1_dropShadow_17309_724" result="shape"/>
</filter>
<clipPath id="clip0_17309_724">
<rect width="30.3333" height="28" fill="white" transform="translate(4 2)"/>
</clipPath>
</defs>
</svg>
