<svg width="118" height="32" viewBox="0 0 118 32" fill="none" xmlns="http://www.w3.org/2000/svg">
<g clip-path="url(#clip0_17384_825)">
<path d="M26.0088 10.636C27.1727 11.4169 27.8663 12.2446 28.0894 13.1191C28.4279 14.4459 29.5089 25.7133 28.05 26.7169C26.591 27.7205 22.6314 27.2932 17.0533 28.0771C11.4752 28.8611 7.27035 30.6042 5.85447 29.651C4.4386 28.6978 2.32329 18.1243 2.3511 16.5787C2.36964 15.5483 2.89053 14.5916 3.91379 13.7088C2.55253 13.349 1.77351 12.4689 1.57671 11.0687C1.28709 9.00784 3.66617 3.63485 12.8946 2.1489C12.7345 2.67756 12.684 3.24746 12.7657 3.82889C13.006 5.53883 14.3184 6.83762 15.9398 7.15803C16.3237 9.2335 18.3013 10.654 20.4389 10.3536C21.2008 10.2465 21.8829 9.93486 22.4361 9.48296C23.2967 10.366 24.5607 10.8414 25.8862 10.6551C25.9273 10.6493 25.9682 10.643 26.0088 10.636Z" fill="#5555FF"/>
</g>
<path d="M54.2424 15.1591L50.4924 15.5682C50.3863 15.1894 50.2007 14.8333 49.9356 14.5C49.678 14.1667 49.3295 13.8977 48.8901 13.6932C48.4507 13.4886 47.9129 13.3864 47.2765 13.3864C46.4204 13.3864 45.7007 13.572 45.1174 13.9432C44.5416 14.3144 44.2576 14.7955 44.2651 15.3864C44.2576 15.8939 44.4432 16.3068 44.8219 16.625C45.2083 16.9432 45.8447 17.2045 46.731 17.4091L49.7083 18.0455C51.3598 18.4015 52.5871 18.9659 53.3901 19.7386C54.2007 20.5114 54.6098 21.5227 54.6174 22.7727C54.6098 23.8712 54.2879 24.8409 53.6515 25.6818C53.0227 26.5152 52.1477 27.1667 51.0265 27.6364C49.9053 28.1061 48.6174 28.3409 47.1629 28.3409C45.0265 28.3409 43.3068 27.8939 42.0038 27C40.7007 26.0985 39.9242 24.8447 39.6742 23.2386L43.6856 22.8523C43.8674 23.6402 44.2538 24.2348 44.8447 24.6364C45.4356 25.0379 46.2045 25.2386 47.1515 25.2386C48.1288 25.2386 48.9129 25.0379 49.5038 24.6364C50.1023 24.2348 50.4015 23.7386 50.4015 23.1477C50.4015 22.6477 50.2083 22.2348 49.8219 21.9091C49.4432 21.5833 48.8523 21.3333 48.0492 21.1591L45.0719 20.5341C43.3977 20.1856 42.1591 19.5985 41.356 18.7727C40.553 17.9394 40.1553 16.8864 40.1629 15.6136C40.1553 14.5379 40.4469 13.6061 41.0379 12.8182C41.6363 12.0227 42.4659 11.4091 43.5265 10.9773C44.5947 10.5379 45.8257 10.3182 47.2197 10.3182C49.2651 10.3182 50.875 10.7538 52.0492 11.625C53.231 12.4962 53.9621 13.6742 54.2424 15.1591ZM66.2631 28.3409C64.5585 28.3409 63.0813 27.9659 61.8313 27.2159C60.5813 26.4659 59.6116 25.4167 58.9222 24.0682C58.2404 22.7197 57.8994 21.1439 57.8994 19.3409C57.8994 17.5379 58.2404 15.9583 58.9222 14.6023C59.6116 13.2462 60.5813 12.1932 61.8313 11.4432C63.0813 10.6932 64.5585 10.3182 66.2631 10.3182C67.9676 10.3182 69.4449 10.6932 70.6949 11.4432C71.9449 12.1932 72.9108 13.2462 73.5926 14.6023C74.282 15.9583 74.6267 17.5379 74.6267 19.3409C74.6267 21.1439 74.282 22.7197 73.5926 24.0682C72.9108 25.4167 71.9449 26.4659 70.6949 27.2159C69.4449 27.9659 67.9676 28.3409 66.2631 28.3409ZM66.2858 25.0455C67.2101 25.0455 67.9828 24.7917 68.604 24.2841C69.2252 23.7689 69.6873 23.0795 69.9904 22.2159C70.301 21.3523 70.4563 20.3902 70.4563 19.3295C70.4563 18.2614 70.301 17.2955 69.9904 16.4318C69.6873 15.5606 69.2252 14.8674 68.604 14.3523C67.9828 13.8371 67.2101 13.5795 66.2858 13.5795C65.3388 13.5795 64.551 13.8371 63.9222 14.3523C63.301 14.8674 62.8351 15.5606 62.5244 16.4318C62.2214 17.2955 62.0699 18.2614 62.0699 19.3295C62.0699 20.3902 62.2214 21.3523 62.5244 22.2159C62.8351 23.0795 63.301 23.7689 63.9222 24.2841C64.551 24.7917 65.3388 25.0455 66.2858 25.0455ZM85.2355 28.3068C83.8643 28.3068 82.637 27.9545 81.5537 27.25C80.4703 26.5455 79.6143 25.5227 78.9855 24.1818C78.3567 22.8409 78.0423 21.2121 78.0423 19.2955C78.0423 17.3561 78.3605 15.7197 78.9968 14.3864C79.6408 13.0455 80.5082 12.0341 81.5991 11.3523C82.69 10.6629 83.9059 10.3182 85.2468 10.3182C86.2696 10.3182 87.1105 10.4924 87.7696 10.8409C88.4287 11.1818 88.9514 11.5947 89.3377 12.0795C89.7241 12.5568 90.0234 13.0076 90.2355 13.4318H90.4059V4.72727H94.5309V28H90.4855V25.25H90.2355C90.0234 25.6742 89.7165 26.125 89.315 26.6023C88.9135 27.072 88.3832 27.4735 87.7241 27.8068C87.065 28.1402 86.2355 28.3068 85.2355 28.3068ZM86.3832 24.9318C87.2544 24.9318 87.9968 24.697 88.6105 24.2273C89.2241 23.75 89.69 23.0871 90.0082 22.2386C90.3264 21.3902 90.4855 20.4015 90.4855 19.2727C90.4855 18.1439 90.3264 17.1629 90.0082 16.3295C89.6976 15.4962 89.2355 14.8485 88.6218 14.3864C88.0158 13.9242 87.2696 13.6932 86.3832 13.6932C85.4665 13.6932 84.7014 13.9318 84.0877 14.4091C83.4741 14.8864 83.012 15.5455 82.7014 16.3864C82.3908 17.2273 82.2355 18.1894 82.2355 19.2727C82.2355 20.3636 82.3908 21.3371 82.7014 22.1932C83.0196 23.0417 83.4855 23.7121 84.0991 24.2045C84.7203 24.6894 85.4817 24.9318 86.3832 24.9318ZM107.168 28.3409C105.464 28.3409 103.986 27.9659 102.736 27.2159C101.486 26.4659 100.517 25.4167 99.8272 24.0682C99.1454 22.7197 98.8044 21.1439 98.8044 19.3409C98.8044 17.5379 99.1454 15.9583 99.8272 14.6023C100.517 13.2462 101.486 12.1932 102.736 11.4432C103.986 10.6932 105.464 10.3182 107.168 10.3182C108.873 10.3182 110.35 10.6932 111.6 11.4432C112.85 12.1932 113.816 13.2462 114.498 14.6023C115.187 15.9583 115.532 17.5379 115.532 19.3409C115.532 21.1439 115.187 22.7197 114.498 24.0682C113.816 25.4167 112.85 26.4659 111.6 27.2159C110.35 27.9659 108.873 28.3409 107.168 28.3409ZM107.191 25.0455C108.115 25.0455 108.888 24.7917 109.509 24.2841C110.13 23.7689 110.592 23.0795 110.895 22.2159C111.206 21.3523 111.361 20.3902 111.361 19.3295C111.361 18.2614 111.206 17.2955 110.895 16.4318C110.592 15.5606 110.13 14.8674 109.509 14.3523C108.888 13.8371 108.115 13.5795 107.191 13.5795C106.244 13.5795 105.456 13.8371 104.827 14.3523C104.206 14.8674 103.74 15.5606 103.429 16.4318C103.126 17.2955 102.975 18.2614 102.975 19.3295C102.975 20.3902 103.126 21.3523 103.429 22.2159C103.74 23.0795 104.206 23.7689 104.827 24.2841C105.456 24.7917 106.244 25.0455 107.191 25.0455Z" fill="white"/>
<defs>
<clipPath id="clip0_17384_825">
<rect width="30.3333" height="28" fill="white" transform="translate(0 2)"/>
</clipPath>
</defs>
</svg>
